<svg width="140" height="12" viewBox="0 0 140 12" fill="none" xmlns="http://www.w3.org/2000/svg">
<path d="M59.8303 6.73157C63.7516 6.48258 67.6718 6.21414 71.5944 5.98808C85.8717 5.16523 100.147 4.26957 114.454 4.1804C121.675 4.13539 128.883 4.39202 136.034 5.50594C137.13 5.67671 138.215 5.92871 139.296 6.18264C139.606 6.25545 140.018 6.3897 139.999 6.79542C139.98 7.22638 139.536 7.24576 139.224 7.28691C138.766 7.34728 138.296 7.34273 137.832 7.33663C128.032 7.20816 118.233 6.87687 108.431 7.14176C84.2045 7.79646 60.0016 8.92196 35.8394 10.836C33.5466 11.0176 31.2636 11.322 28.9758 11.5675C28.7705 11.5895 28.5628 11.6141 28.3573 11.607C27.7442 11.5859 27.2978 11.3161 27.2139 10.673C27.1303 10.0321 27.4756 9.59928 28.0765 9.48378C29.0134 9.30359 29.9646 9.18677 30.9141 9.08401C41.4361 7.94531 51.8487 6.14103 62.1952 3.9389C64.0599 3.54199 65.9128 3.07953 67.7137 2.26594C67.3082 2.21537 66.904 2.14465 66.4969 2.1174C61.1421 1.75855 55.7949 2.04197 50.4502 2.34446C43.273 2.75063 36.1108 3.36102 28.9648 4.13369C21.5632 4.93408 14.1669 5.79607 6.93318 7.65741C4.94855 8.16813 3.02652 8.83974 1.23343 9.85483C0.873264 10.0587 0.354059 10.4404 0.069249 9.97095C-0.191859 9.54061 0.345721 9.20484 0.680792 8.9489C1.9509 7.97851 3.41031 7.38125 4.91272 6.88359C9.24872 5.44726 13.7279 4.64471 18.2269 3.96415C30.2749 2.14164 42.3944 0.992439 54.5541 0.268794C58.8645 0.0123181 63.1831 -0.148501 67.5 0.201548C68.3511 0.27057 69.1991 0.37387 70.004 0.683386C70.5936 0.910138 71.0446 1.28528 71.1247 1.94978C71.2051 2.61583 70.8458 3.08795 70.3345 3.44826C69.5649 3.99055 68.6834 4.2959 67.8001 4.59252C65.1994 5.46556 62.5096 5.9921 59.8303 6.73157Z" fill="#FFE26A"/>
</svg>
